<svg xmlns="http://www.w3.org/2000/svg" viewBox="0 0 1200 447"><defs><style>.cls-1{fill:#50535a;}</style></defs><title>Movistar series logo</title><g id="Layer_2" data-name="Layer 2"><g id="Layer_1-2" data-name="Layer 1"><path class="cls-1" d="M347.76,37.62C338.19,15.51,322.82,1.34,303.11.09c-21.82-1.38-46.86,13.09-60,41.18-12.11,25.89-21.8,52.47-27.67,66-6,13.76-14.72,22.24-28.19,23.66-16.46,1.73-30.65-10.22-41-27.26-9.06-14.86-27-43.14-36.61-52.65-9-8.92-19.34-20.1-40.79-19.76-17,.27-48.27,8.64-62.57,67-6.23,25.45-8.64,52-3.31,83.54A320.4,320.4,0,0,0,22.44,250,60.77,60.77,0,0,0,30,262.79c7,8.81,18.56,8.25,23.44,5.85,5.31-2.62,11.42-8.93,9.21-23.35-1.07-7-4.15-17.16-5.89-22.83-5.32-17.38-12.4-38.36-13-53.3-.83-20,7-22.6,12.29-23.75,8.8-1.94,16.18,7.72,23.19,19.83,8.36,14.46,22.7,40.07,34.39,59.63,10.56,17.67,30.05,36.57,61.33,35.28,31.9-1.33,55.42-13.5,67.53-51.81,9.06-28.67,15.24-50.09,25.18-72,11.44-25.22,26.69-38.72,39.53-34.6,11.92,3.82,14.9,15.48,15,32.61.13,15.15-1.63,31.86-3,44.13-.5,4.45-1.39,13.41-1,18.39.72,9.78,4.95,19.54,16,21.1,11.73,1.67,21.14-7.7,24.9-19a105.88,105.88,0,0,0,3.43-16.15c3.45-24.49,4.34-40.95,2.79-66C363.5,87.46,357.76,60.74,347.76,37.62Z"/><path class="cls-1" d="M970.06,267.58c-12.25,0-17.75,8.24-18.38,21.55h36.55C988.23,276,982.1,267.58,970.06,267.58Z"/><path class="cls-1" d="M721.4,267.58c-12.25,0-17.74,8.24-18.38,21.55h36.55C739.57,276,733.45,267.58,721.4,267.58Z"/><path class="cls-1" d="M1158,99.35H466.54V405a42,42,0,0,0,42,42H1158a42,42,0,0,0,42-42V141.36A42,42,0,0,0,1158,99.35ZM642.18,340.47C632,350,618.31,354.2,597.6,354.2c-18.38,0-33.38-2.32-48-7.39l5.07-25.14c12.68,4.43,29.37,7.18,39.93,7.18,19.44,0,28.53-5.07,28.53-18.38,0-27.05-73.74-7.4-73.74-64.23,0-29.37,23-42.25,53.88-42.25,13.94,0,29.15,2.11,40.35,5.91l-5.07,24.51c-11.83-3.17-24.51-5.07-34.65-5.07-17.75,0-23.45,6.34-23.45,15.42,0,28.31,73.73,8.88,73.73,65.29C654.22,322.93,649.79,333.29,642.18,340.47Zm127-34c0,1.69-.84,2.33-2.53,2.33H703c.85,17.53,11.62,22.39,31.9,22.39a156.43,156.43,0,0,0,25.78-2.53l2.32,22a186.42,186.42,0,0,1-34.86,3.59c-19.43,0-34-4.86-42.88-13.31-10.36-9.93-13.95-24.72-13.95-41.2,0-36.34,18.59-54.93,50.28-54.93,31.06,0,47.54,16.27,47.54,52.19Zm83.24-34.65a115,115,0,0,0-13.31-.84,88.67,88.67,0,0,0-20.71,2.53v77.75H788.16V247.72h26.2l1.06,8.45c8-7.39,21.76-11.2,31.69-11.2a36.85,36.85,0,0,1,5.28.43Zm46.9,79.44H869.07V247.72h30.22ZM900.76,216c0,10.35-5.49,14.37-15.84,14.37h-1.48c-10.35,0-15.85-4-15.85-14.37v-2.75c0-10.35,5.5-14.58,15.85-14.58h1.48c10.35,0,15.84,4.23,15.84,14.58Zm117,90.42c0,1.69-.85,2.33-2.54,2.33H951.68c.84,17.53,11.62,22.39,31.9,22.39a156.43,156.43,0,0,0,25.78-2.53l2.32,22a186.42,186.42,0,0,1-34.86,3.59c-19.44,0-34-4.86-42.89-13.31C923.58,331,920,316.17,920,299.69c0-36.34,18.59-54.93,50.28-54.93,31.06,0,47.54,16.27,47.54,52.19Zm52.6,47.75c-12.25,0-28.1-2.75-36.34-5.7l2.33-22.4c7.81,2.54,22.18,4.86,33.38,4.86,11.41,0,18.59-2.11,18.59-9.51,0-18.38-56.41-.42-56.41-43.31,0-19.22,13.94-33.38,45-33.38a112.8,112.8,0,0,1,34.44,5.71l-2.33,22.18a133.48,133.48,0,0,0-31.9-4.65c-10.77,0-16.69,2.54-16.69,8.45,0,17.54,56.62.85,56.62,43.74C1117.1,341.74,1101.47,354.2,1070.41,354.2Z"/></g></g></svg>